<?xml version="1.0" encoding="UTF-8"?>
<svg id="_レイヤー_1" data-name="レイヤー_1" xmlns="http://www.w3.org/2000/svg" version="1.1" viewBox="0 0 238.94 57.71">
  <!-- Generator: Adobe Illustrator 30.2.1, SVG Export Plug-In . SVG Version: 2.1.1 Build 1)  -->
  <defs>
    <style>
      .st0 {
        fill: #dac127;
      }

      .st1 {
        fill: #962363;
      }
    </style>
  </defs>
  <g>
    <path class="st0" d="M38.87,15.27c1.34,0,5.01,0,6.12-.11.22-.06,1.06-.17,1.22-.17.78,0,1.5.56,2.34,1.5l.89,1c.83.89,1.56,1.67,1.56,2.28,0,.39-.5,1.67-.67,2.28-.28,1-.45,2.06-.67,3.12-2.56,12.24-8.51,19.97-19.41,26.03-1.61.89-6.67,3.45-8.4,3.45-1.22,0-2.56-2.39-3.17-3.45-.44-.78-1.45-2.56-1.45-3.45,0-.61.61-.72,1.11-.83,5.34-1.22,12.24-5.28,16.02-9.29,3.62-3.78,6.06-10.35,6.06-12.74,0-.95-1.06-1.11-2.5-1.11h-17.13c-2.34,0-4.73.11-7.06.11-2,0-2.22-.28-2.22-2.84v-3.28c0-2.28.33-2.61,1.89-2.61,2.5,0,5.06.11,7.56.11h17.91Z"/>
    <path class="st0" d="M65.68,30.4c-2.22,0-5.23.11-6.45.11-1.56,0-1.56-.83-1.56-3.06v-2.34c0-1.06.22-1.72,1.61-1.72,2.11,0,4.28.06,6.4.06h19.58c.95,0,1.89,0,2.89-.22.33-.06.56-.06.83-.06,1.17,0,2.23,1.28,2.95,2.11.61.67,1.56,1.67,1.56,2.61,0,.56-.28.83-1,1.45-.17.11-.44.39-.56.56-2.45,2.84-6.12,6.45-8.84,8.96-.44.39-.83.72-1.45.72s-2-1.11-2.61-1.61c-.33-.28-.44-.39-.83-.39-.56,0-.67.61-.83,1.22-1.28,4.9-3.73,9.73-7.4,13.18-.78.72-3.34,3-4.28,3-1.11,0-5.56-3.45-5.56-4.56,0-.44.39-.72,1.34-1.28,5.73-3.39,9.12-8.96,9.23-15.63,0-.67.11-.89.78-.89,1.06,0,6.51.22,7.18.5.11.06.22.06.33.06.28,0,.44-.17,1.11-.78.45-.39.95-.78.95-1.22,0-.67-.56-.78-1-.78h-14.35Z"/>
    <path class="st0" d="M103.95,23.22c.89,0,7.06,3.78,8.18,4.51,1.11.67,4.12,2.45,4.12,3.39,0,1.22-3.56,6.12-4.78,6.12-.39,0-1.06-.44-1.39-.72-3.34-2.39-5.78-3.95-9.4-6.01-.61-.33-1.17-.61-1.17-1.11,0-1.06,3.23-6.17,4.45-6.17ZM104.51,46.87c1.28-.28,5.23-1.78,6.68-2.34,5.23-2,9.51-4.12,13.46-8.18,4.51-4.62,7.62-11.46,9.79-17.47.22-.61.56-1.45,1.39-1.45.78,0,2.5,1.61,3.17,2.23.72.72,2.78,2.73,2.78,3.56,0,.72-.89,2.89-1.22,3.67-6.01,14.46-15.57,22.14-29.98,27.53-1.5.56-1.61.56-2.28,1.5-.06.17-.28.39-.5.39-.56,0-1.28-1.61-1.5-2.11-.78-1.56-1.95-4.39-2.67-5.78-.11-.22-.28-.56-.28-.78,0-.5.78-.67,1.17-.78ZM118.36,15.99c.78.56,3.73,2.61,3.73,3.39,0,1.22-3.62,5.9-4.73,5.9-.39,0-1.11-.61-1.45-.89-2.95-2.28-5.95-4.45-9.12-6.4-.33-.22-1.06-.67-1.06-1.11,0-1.06,3.67-5.62,4.78-5.62,1,0,6.67,3.89,7.84,4.73Z"/>
    <path class="st0" d="M157.63,31.68c0,2,.06,3.95.06,5.9,0,2.17-.11,2.61-3,2.61h-3.45c-2.11,0-2.56-.39-2.56-1.67,0-1.84.17-4.28.17-6.68v-11.74c0-1.84,0-3.73-.06-5.56,0-.5-.06-1.17-.06-1.61s.11-.56.5-.56c.72,0,5.4.56,6.51.67.33.06.61.06.89.11,1.22.11,1.89.22,1.89.61,0,.78-.89.22-.89,3.12v14.8ZM178.71,27.34c0,4.34,0,8.68-.56,13.02-.72,5.34-2.5,9.57-6.62,13.18-1,.83-5.23,4.17-6.34,4.17-.83,0-2.84-1.61-3.62-2.22-.78-.56-3-2.17-3-3.17,0-.5,1.11-1,1.56-1.22,4.78-2.61,8.34-5.62,9.23-11.29.56-3.73.72-7.68.72-11.4v-11.4c0-1.39,0-2.78-.17-4.17-.06-.33-.11-.83-.11-1.17,0-.39.17-.56.56-.56,1.56,0,6.51.56,8.23.83.39.06,1.06.11,1.06.61,0,.28-.22.5-.5.78-.39.44-.44,2.11-.44,3.12v10.9Z"/>
  </g>
  <g>
    <path class="st0" d="M200.51,32.95c.36.65.55,1,1.07,1,.36,0,1.39-.55,2.07-1,.71-.48,1.36-.87,1.71-.87.68,0,1.32.84,1.91,1.58.58.74,1.13,1.42,1.13,2,0,.42-.71.74-1.49,1.1-.74.36-1.49.68-2.23,1-.48.19-.97.36-.97.97,0,.26.23.65.52,1.16.87,1.58,2.1,3.81,3.1,5.07.81,1.03,1.74,1.87,1.74,2.39,0,.9-2.45,2.81-3.17,2.81-.19,0-.61-.16-.9-.39-1.52-1.26-5.43-2.97-7.69-2.97-1.16,0-2.62.71-2.62,2.03,0,2.81,4.62,3.29,6.65,3.29.65,0,1.29-.06,1.87-.06.97,0,1.03.81,1.03,1.58,0,.87-.13,1.81-.36,2.65-.16.58-.45.74-1.26.74-1.71,0-4.36-.42-6.04-.84-3.58-.9-6.75-3.04-6.75-7.14s3.46-6.69,7.36-6.69c1.03,0,2.23.26,2.29.26.26,0,.52-.13.52-.42,0-.32-.48-1.1-.68-1.42-.32-.55-.52-.84-1.1-.84-.13,0-.29.03-.45.06-1.55.42-5.75,1.16-7.27,1.16-.87,0-1-.29-1.26-1.07-.23-.71-.68-2.13-.68-2.91,0-.42.03-.84,1-.87,1.23-.03,4.36-.26,5.43-.48.48-.1.84-.26.84-.74,0-.39-.74-1.39-1.19-2-.36-.48-1.16-1.32-1.16-1.78,0-.32.36-.61.71-.77,1.39-.68,3.1-1.23,3.71-1.23.68,0,.94.52,1.91,2.33.19.39.42.81.68,1.29Z"/>
    <path class="st0" d="M212.46,50.58c2.29-4.94,4.55-9.92,7.53-14.5,1.36-2.1,2.81-4.2,4.07-6.36.1-.19.19-.36.45-.36.36,0,2.45,1.62,2.87,1.94l.42.32c.61.45.97.74.97,1.03s-.19.42-.45.48c-.84.16-.84.32-1.49,1.13-1.23,1.49-2.33,3.07-3.36,4.68-.1.16-.23.36-.23.52,0,.19.23.42.42.42.16,0,.39-.06.52-.1.39-.1.81-.13,1.16-.13,2.81,0,4.59,1.45,4.59,4.33,0,1.42-.52,3.39-.78,4.81-.06.32-.16.84-.16,1.23,0,.32.16.65.55.65,1.13,0,4.17-3.65,4.91-4.62.55-.71.84-1.07,1.26-1.07.65,0,2.16,3.42,2.16,4.01,0,.61-2.13,2.58-2.65,3.07-1.97,1.78-4.39,3.65-7.17,3.65-2.62,0-3.71-2.2-3.71-4.52,0-1.26.23-2.52.45-3.75.13-.68.32-1.84.32-2.39s-.19-.9-.77-.9c-.81,0-1.74.39-2.45.78-1.36.77-2.04,1.61-2.81,2.97-.94,1.68-2.33,4.75-2.78,6.62-.13.48-.26.97-.84.97-.74,0-2.68-.9-3.39-1.29-.55-.29-.9-.45-.9-.74,0-.23,1.1-2.49,1.29-2.87Z"/>
  </g>
  <path class="st1" d="M18.71,9.24c1.38-1.06,2.67-2.09,3.99-3.07,1.69-1.25,3.33-2.57,5.12-3.66,4.47-2.71,9.19-3.46,14.03-1.1,3.9,1.9,6.32,5.12,7.27,9.34.59,2.63-.57,4.69-3.05,5.78-3,1.32-6.15,1.91-9.43,1.95-3.91.06-7.7.9-11.34,2.27-4.46,1.67-8.87,3.48-13.32,5.2-2.17.84-4.44,1.33-6.77,1.39-3.32.09-5.67-2.64-5.14-6.02.39-2.46,1.92-4.27,3.94-5.46,2.34-1.38,4.89-2.43,7.39-3.52,1.34-.59,2.76-.97,4.14-1.45.22-.08.42-.18.71-.31-1.48-2.44-2.92-4.83-4.44-7.35.41-.1.74-.18,1.07-.26.92-.22,1.85-.4,2.75-.68.62-.19.81.03.98.59.6,1.97,1.25,3.91,1.88,5.87.04.13.11.25.21.49Z"/>
</svg>